<svg width="24" height="24" viewBox="0 0 24 24" fill="none" xmlns="http://www.w3.org/2000/svg">
<circle cx="12" cy="12" r="12" fill="#FF7E1B"/>
<path d="M12.2168 19.6361C16.9782 19.6361 19.7358 18.8828 19.7358 15.0296C19.7358 11.6306 16.3557 10.8582 13.076 10.3484L12.5154 10.2631C12.4223 10.2492 12.3295 10.2354 12.237 10.2216L11.8879 10.1693C9.18668 9.76368 8.70681 9.38108 8.70681 8.6981C8.70681 8.22026 9.19774 7.36702 11.5495 7.36702C14.0047 7.36702 15.043 8.01429 15.043 9.2374V9.37111H19.3245V9.23823C19.3245 6.84904 17.9744 4 11.5495 4C5.59817 4 4.34873 6.58437 4.34873 8.75208C4.34873 11.8492 7.11186 12.8378 11.5725 13.4275C11.7826 13.4549 12.0048 13.4815 12.2307 13.508C13.8997 13.7049 15.4032 13.9272 15.4032 15.0935C15.4032 16.1032 13.788 16.3147 12.1052 16.3147C9.30831 16.3147 8.32121 15.7225 8.32121 14.3951V14.2613H4.0021L4.00044 14.5626L4 14.8793C4.00845 15.6695 4.11799 16.7919 5.05693 17.741C6.30277 18.9979 8.71152 19.6361 12.2168 19.6361Z" fill="white"/>
</svg>
