<svg width="24" height="24" viewBox="0 0 24 24"
    xmlns="http://www.w3.org/2000/svg">
    <path fill-rule="evenodd" clip-rule="evenodd" d="M4.86313 5.64139H21.9246C22.5077 5.64139 22.9352 6.19014 22.7941 6.75489L20.9732 14.0381C20.8781 14.4181 20.5473 14.6924 20.1563 14.7153L5.83452 15.557C6.09057 16.1554 6.68378 16.5661 7.36452 16.5661H17.3727C18.8709 16.5661 20.0897 17.7849 20.0897 19.2831C20.0897 20.7812 18.8709 22 17.3727 22C15.4955 22 14.1758 20.1275 14.818 18.3584H9.91319C10.5563 20.1298 9.23365 22 7.35846 22C5.09916 22 3.83011 19.3851 5.21903 17.6114C4.44867 17.0012 4.00149 16.1031 3.92835 15.2755C2.79349 2.63151 2.84298 3.18296 2.9492 4.36648C3.0206 5.16214 3.11759 6.24273 2.89764 3.79232H1.89616C1.40122 3.79232 1 3.39109 1 2.89616C1 2.40122 1.40122 2 1.89616 2H3.71694C4.18081 2 4.56803 2.35403 4.60951 2.81606L4.86313 5.64139ZM6.43388 19.2831C6.43388 19.7929 6.84867 20.2077 7.35846 20.2077C7.86829 20.2077 8.28308 19.7929 8.28308 19.2831C8.28308 18.7732 7.86829 18.3584 7.35846 18.3584C6.84867 18.3584 6.43388 18.7732 6.43388 19.2831ZM17.3727 20.2077C16.8629 20.2077 16.4481 19.7929 16.4481 19.2831C16.4481 18.7732 16.8629 18.3584 17.3727 18.3584C17.8825 18.3584 18.2973 18.7732 18.2973 19.2831C18.2973 19.7929 17.8825 20.2077 17.3727 20.2077ZM5.59328 13.7758L19.394 12.9648L20.7769 7.43367H5.02401L5.59328 13.7758Z" fill="currentColor"/>
</svg>
