<svg width="24" height="24" viewBox="0 0 24 24"
    xmlns="http://www.w3.org/2000/svg">
    <path d="M18 13.0232V10.9768C18 10.6205 17.7134 10.3339 17.3571 10.3339H13.6661V6.64286C13.6661 6.28661 13.3795 6 13.0232 6H10.9768C10.6205 6 10.3339 6.28661 10.3339 6.64286V10.3339H6.64286C6.28661 10.3339 6 10.6205 6 10.9768V13.0232C6 13.3795 6.28661 13.6661 6.64286 13.6661H10.3339V17.3571C10.3339 17.7134 10.6205 18 10.9768 18H13.0232C13.3795 18 13.6661 17.7134 13.6661 17.3571V13.6661H17.3571C17.7134 13.6661 18 13.3795 18 13.0232Z" fill="currentColor"/>
</svg>
