<svg width="16" height="16" viewBox="0 0 16 16" fill="none"
    xmlns="http://www.w3.org/2000/svg">
    <path fill-rule="evenodd" clip-rule="evenodd" d="M2 2.625V1.75C2 1.33438 2.33437 1 2.75 1H6.25L6.54375 0.415625C6.66875 0.159375 6.92812 0 7.2125 0H10.7844C11.0688 0 11.3281 0.159375 11.4563 0.415625L11.75 1H15.25C15.6656 1 16 1.33438 16 1.75V2.625C16 2.83125 15.8313 3 15.625 3H2.375C2.16875 3 2 2.83125 2 2.625ZM15 4.375V14.5C15 15.3281 14.3281 16 13.5 16H4.5C3.67188 16 3 15.3281 3 14.5V4.375C3 4.16875 3.16875 4 3.375 4H14.625C14.8313 4 15 4.16875 15 4.375ZM6 6C6.275 6 6.5 6.225 6.5 6.5V13.5C6.5 13.775 6.275 14 6 14C5.725 14 5.5 13.775 5.5 13.5V6.5C5.5 6.225 5.725 6 6 6ZM9.5 6.5C9.5 6.225 9.275 6 9 6C8.725 6 8.5 6.225 8.5 6.5V13.5C8.5 13.775 8.725 14 9 14C9.275 14 9.5 13.775 9.5 13.5V6.5ZM12 6C12.275 6 12.5 6.225 12.5 6.5V13.5C12.5 13.775 12.275 14 12 14C11.725 14 11.5 13.775 11.5 13.5V6.5C11.5 6.225 11.725 6 12 6Z" fill="#C3CAD9"/>
</svg>
